{
	"samplers":[{
		"magFilter":9729,
		"minFilter":9729,
		"wrapS":10497,
		"wrapT":10497
	}],
	"meshes":[{
		"name":"Cabbage",
		"primitives":[{
			"attributes":{
				"POSITION":1,
				"NORMAL":2,
				"TEXCOORD_0":3
			},
			"indices":0,
			"material":0
		}]
	}],
	"asset":{
		"version":"2.0",
		"generator":"Created using the official Cinema 4D glTF Exporter 1.000x284978"
	},
	"textures":[{
		"sampler":0,
		"source":0
	}],
	"scenes":[{
		"nodes":[0]
	}],
	"accessors":[{
		"bufferView":0,
		"type":"SCALAR",
		"componentType":5123,
		"count":9216,
		"byteOffset":0,
		"min":[0],
		"max":[1665]
	},
	{
		"bufferView":1,
		"type":"VEC3",
		"componentType":5126,
		"count":1666,
		"byteOffset":0,
		"min":[-0.08710972964763642,
		-0.077937550842762,
		0.0004400068719405681],
		"max":[0.08171283453702927,
		0.0969342291355133,
		0.12251041829586029]
	},
	{
		"bufferView":1,
		"type":"VEC3",
		"componentType":5126,
		"count":1666,
		"byteOffset":12,
		"min":[-0.9982553720474243,
		-0.9985378980636597,
		-0.9998217225074768],
		"max":[0.997900664806366,
		0.9975054860115051,
		0.9990671277046204]
	},
	{
		"bufferView":1,
		"type":"VEC2",
		"componentType":5126,
		"count":1666,
		"byteOffset":24,
		"min":[0.0096626877784729,
		0.006194472312927246],
		"max":[0.9850395917892456,
		0.9943971633911133]
	}],
	"nodes":[{
		"name":"Cabbage",
		"translation":[0.0,
		0.0,
		0.0],
		"rotation":[0.7071067690849304,
		0.0,
		0.0,
		-0.7071067690849304],
		"scale":[100.0,
		100.0,
		100.0],
		"mesh":0
	}],
	"bufferViews":[{
		"buffer":0,
		"byteOffset":0,
		"byteLength":18432,
		"target":34963
	},
	{
		"buffer":0,
		"byteOffset":18432,
		"byteLength":53312,
		"target":34962,
		"byteStride":32
	}],
	"buffers":[{
		"uri":"data:application/octet-stream;base64,",
		"byteLength":71744
	}],
	"images":[{
		"uri":"data:image/jpeg;base64,"
	}],
	"materials":[{
		"pbrMetallicRoughness":{
			"baseColorTexture":{
				"index":0
			},
			"baseColorFactor":[0.800000011920929,
			0.800000011920929,
			0.800000011920929,
			1.0],
			"metallicFactor":0.0,
			"roughnessFactor":0.5356143810225276
		},
		"emissiveFactor":[0.0,
		0.0,
		0.0],
		"alphaMode":"OPAQUE",
		"doubleSided":false,
		"name":"Material.001"
	}]
}