{
	"asset":{
		"version":"2.0",
		"generator":"Created using the official Cinema 4D glTF Exporter 1.000x284978"
	},
	"materials":[{
		"name":"Mat.2",
		"pbrMetallicRoughness":{
			"baseColorFactor":[0.7122302158273381,
			0.6712385487293618,
			0.6712385487293618,
			1.0],
			"metallicFactor":1.0,
			"roughnessFactor":0.0
		},
		"emissiveFactor":[0.0,
		0.0,
		0.0],
		"alphaMode":"OPAQUE",
		"doubleSided":false
	},
	{
		"name":"Mat",
		"pbrMetallicRoughness":{
			"baseColorFactor":[1.0,
			1.0,
			1.0,
			0.94],
			"metallicFactor":0.0,
			"roughnessFactor":0.5
		},
		"emissiveFactor":[0.0,
		0.0,
		0.0],
		"alphaMode":"BLEND",
		"doubleSided":false
	}],
	"scenes":[{
		"nodes":[0]
	}],
	"nodes":[{
		"name":"Spoon",
		"translation":[0.0,
		0.0,
		1612.908203125],
		"rotation":[0.0,
		-0.2977425456047058,
		0.0,
		-0.9546462297439575],
		"scale":[1.0,
		1.0,
		1.0],
		"children":[1,
		2]
	},
	{
		"name":"spoon",
		"translation":[0.0,
		1.9077409668818124e-15,
		0.0],
		"rotation":[0.0,
		0.0,
		0.0,
		-1.0],
		"mesh":0,
		"scale":[0.10000000149011612,
		0.10000000149011612,
		0.10000000149011612]
	},
	{
		"name":"Capsule",
		"mesh":1
	}],
	"meshes":[{
		"name":"spoon",
		"primitives":[{
			"attributes":{
				"POSITION":1,
				"NORMAL":2,
				"TEXCOORD_0":3
			},
			"indices":0,
			"material":0
		}]
	},
	{
		"name":"Capsule",
		"primitives":[{
			"attributes":{
				"POSITION":5,
				"NORMAL":6,
				"TEXCOORD_0":7
			},
			"indices":4,
			"material":1
		}]
	}],
	"accessors":[{
		"bufferView":0,
		"type":"SCALAR",
		"componentType":5123,
		"count":5325,
		"min":[0],
		"byteOffset":0,
		"max":[1140]
	},
	{
		"bufferView":1,
		"type":"VEC3",
		"componentType":5126,
		"count":1141,
		"min":[-3905.40966796875,
		-171.61676025390626,
		-841.9867553710938],
		"byteOffset":0,
		"max":[3780.589599609375,
		195.08509826660157,
		841.9867553710938]
	},
	{
		"bufferView":1,
		"type":"VEC3",
		"componentType":5126,
		"count":1141,
		"min":[-1.0,
		-1.0,
		-1.0],
		"byteOffset":12,
		"max":[1.0,
		1.0,
		1.0]
	},
	{
		"bufferView":1,
		"type":"VEC2",
		"componentType":5126,
		"count":1141,
		"min":[0.0,
		-5.551115123125783e-17],
		"byteOffset":24,
		"max":[1.0,
		1.0]
	},
	{
		"bufferView":2,
		"type":"SCALAR",
		"componentType":5123,
		"count":12117,
		"min":[0],
		"byteOffset":0,
		"max":[2450]
	},
	{
		"bufferView":3,
		"type":"VEC3",
		"componentType":5126,
		"count":2451,
		"min":[-361.3539123535156,
		-17.16167640686035,
		-63.843563079833987],
		"byteOffset":0,
		"max":[-169.57199096679688,
		26.076133728027345,
		48.69791030883789]
	},
	{
		"bufferView":3,
		"type":"VEC3",
		"componentType":5126,
		"count":2451,
		"min":[-0.9327525496482849,
		-1.0,
		-0.9890729188919067],
		"byteOffset":12,
		"max":[0.8921579122543335,
		-0.14708100259304048,
		0.9700784087181091]
	},
	{
		"bufferView":3,
		"type":"VEC2",
		"componentType":5126,
		"count":2451,
		"min":[0.029669571667909623,
		0.06269706785678864],
		"byteOffset":24,
		"max":[0.4541236162185669,
		0.9483867883682251]
	}],
	"bufferViews":[{
		"buffer":0,
		"byteOffset":0,
		"byteLength":10650,
		"target":34963
	},
	{
		"buffer":0,
		"byteOffset":10652,
		"byteLength":36512,
		"target":34962,
		"byteStride":32
	},
	{
		"buffer":1,
		"byteOffset":0,
		"byteLength":24234,
		"target":34963
	},
	{
		"buffer":1,
		"byteOffset":24236,
		"byteLength":78432,
		"target":34962,
		"byteStride":32
	}],
	"buffers":[{
		"uri":"data:application/octet-stream;base64,",
		"byteLength":47164
	},
	{
		"uri":"data:application/octet-stream;base64,",
		"byteLength":102668
	}]
}